<svg width="758" height="758" viewBox="0 0 758 758" fill="none" xmlns="http://www.w3.org/2000/svg">
<circle cx="378.959" cy="378.959" r="190" fill="black"/>
<mask id="mask0_471_1800" style="mask-type:alpha" maskUnits="userSpaceOnUse" x="265" y="292" width="229" height="208">
<path d="M436.995 292.275C440.651 295.778 443.626 299.927 445.768 304.512C447.178 307.515 448.151 310.703 448.657 313.981C449.895 322.309 436.183 320.826 443.079 334.837C433.455 346.585 414.041 350.677 399.867 343.077C374.494 329.475 359.48 293.847 327.07 294.442C314.95 294.649 303.295 300.223 294.365 308.426C285.436 316.63 279.05 327.301 274.438 338.486C261.134 370.857 261.993 409.515 278.881 440.333C282.44 446.788 286.567 452.914 291.213 458.638C305.425 476.254 324.933 492.518 347.555 497.346C381.356 504.561 415.282 487.64 441.958 468.376C465.144 451.643 486.13 429.793 491.82 400.817C493.928 389.606 493.854 378.094 491.601 366.912C486.732 341.774 471.279 319.943 452.122 303.454C447.406 299.315 442.362 295.567 437.039 292.244" fill="black"/>
</mask>
<g mask="url(#mask0_471_1800)">
<circle cx="365.674" cy="399.4" r="107.155" fill="black"/>
<mask id="mask1_471_1800" style="mask-type:alpha" maskUnits="userSpaceOnUse" x="258" y="292" width="215" height="215">
<circle cx="365.44" cy="399.255" r="107.165" fill="url(#paint0_linear_471_1800)"/>
<circle cx="365.44" cy="399.255" r="107.165" stroke="#FF0000"/>
</mask>
<g mask="url(#mask1_471_1800)">
<path d="M371.403 506.108C377.709 505.334 383.944 504.059 390.049 502.295C410.933 496.337 421.257 492.961 423.218 492.365C423.882 492.04 424.61 491.871 425.348 491.871C426.087 491.871 426.815 492.04 427.478 492.365C427.856 492.601 428.287 492.737 428.731 492.758C429.176 492.779 429.618 492.685 430.016 492.486C430.414 492.287 430.754 491.988 431.003 491.619C431.253 491.25 431.404 490.823 431.441 490.379C431.877 486.625 434.195 484.222 436.316 481.501C445.569 469.585 454.684 457.669 463.937 445.853C464.849 444.8 465.969 443.948 467.227 443.35C467.757 443.201 468.242 442.921 468.636 442.536C469.03 442.15 469.322 441.672 469.483 441.144C469.645 440.616 469.672 440.056 469.562 439.515C469.451 438.974 469.207 438.47 468.851 438.048C468.17 436.838 467.834 435.464 467.88 434.076C468.554 423.272 469.333 412.475 470.219 401.684C470.3 400.395 470.786 399.165 471.605 398.169C473.191 396.501 472.695 395.369 471.605 393.681C470.454 391.854 469.636 389.837 469.188 387.723C468.448 385.437 468.245 383.01 468.594 380.633C469.584 376.939 467.583 374.933 465.859 372.252C463.105 367.922 461.104 363.096 458.746 358.509C456.764 354.537 453.594 350.902 452.92 346.772C452.247 342.641 450.483 341.35 447.452 339.046C441.289 334.359 436.276 328.143 430.787 322.562C430.317 322.098 429.799 321.686 429.242 321.331C422.624 317.021 415.986 312.771 409.427 308.422C408.815 307.966 408.352 307.336 408.1 306.615C407.307 304.51 405.821 304.132 403.76 304.291C400.918 304.519 398.062 304.519 395.22 304.291C389.514 303.735 383.807 303.1 378.16 302.166C374.97 301.65 371.304 302.623 368.728 299.604C368.53 299.366 367.519 299.723 366.945 299.942C363.319 301.292 359.792 303.477 356.086 303.914C352.227 304.266 348.437 305.169 344.832 306.595C336.381 309.61 327.735 312.045 318.954 313.884C315.169 314.797 311.484 316.743 307.243 315.274C305.519 314.678 304.132 315.989 303.776 318.153C303.561 319.811 302.964 321.395 302.032 322.781C293.102 334.697 284.087 346.487 274.985 358.151C273.189 360.571 271.015 362.684 268.545 364.407C266.088 366.036 265.335 367.168 266.564 369.968C267.133 371.166 267.431 372.475 267.436 373.801C267.218 377.515 266.584 381.209 266.405 384.923C265.95 393.482 265.751 402.062 263.612 410.423C263.562 410.705 263.562 410.994 263.612 411.277C264.602 416.122 265.593 420.968 266.504 425.854C266.707 427.292 266.557 428.757 266.069 430.124C265.64 430.925 265.499 431.849 265.669 432.741C265.838 433.634 266.308 434.442 267 435.029C268.415 436.166 269.657 437.504 270.685 439.001C273.004 442.973 275.144 447.064 277.145 451.195C279.642 456.398 283.585 461.006 283.803 467.182C283.803 467.719 284.932 468.295 285.626 468.692C287.541 469.604 289.388 470.652 291.154 471.83C294.047 474.173 296.742 476.775 299.417 479.376C301.082 480.61 302.439 482.214 303.379 484.063C304.172 486.764 305.361 488.035 308.115 487.936C308.801 487.844 309.499 487.983 310.097 488.333C316.219 492.901 322.283 497.548 328.385 502.116C329.186 502.717 330.128 503.1 331.12 503.228L332.844 503.367C334.244 503.447 335.651 503.447 337.064 503.367C340.77 503.268 351.192 504.579 357.037 505.214C359.891 505.532 364.072 505.949 369.204 506.326L371.403 506.108ZM462.491 370.663L466.275 382.42L465.582 382.658L461.421 371.021L462.491 370.663ZM447.788 353.723C448.284 351.915 449.096 350.188 450.008 347.765C455.694 363.275 461.183 378.23 466.652 393.184L465.879 393.879C463.046 392.926 460.192 391.993 457.359 390.98C452.861 389.371 448.403 387.703 443.925 386.055C443.324 385.924 442.76 385.663 442.271 385.29C441.782 384.917 441.381 384.441 441.096 383.895C440.81 383.35 440.648 382.748 440.62 382.133C440.591 381.518 440.698 380.904 440.932 380.335C443.053 371.497 445.292 362.64 447.63 353.782L447.788 353.723ZM402.789 440.093C403.007 436.558 403.899 436.121 407.168 437.313C408.96 437.815 410.789 438.174 412.637 438.385C420.722 440.193 428.806 442 436.871 443.907C438.122 444.422 439.307 445.089 440.397 445.893H445.569C444.956 446.669 444.294 447.405 443.588 448.097C432.201 457.431 420.794 466.745 409.368 476.04C407.05 478.026 406.594 477.887 405.762 475.087C405.33 473.53 405.058 471.933 404.949 470.32C404.325 466.067 404.053 461.769 404.137 457.471C404.493 451.553 402.274 446.012 402.631 440.153L402.789 440.093ZM296.484 382.5C301.457 378.806 306.391 375.132 311.523 371.537C312.653 370.723 314.119 370.405 315.288 369.551C316.457 368.697 316.734 367.843 317.606 367.188C322.124 363.792 326.681 360.475 331.259 357.138C333.022 355.848 334.805 354.557 336.668 353.385C337.322 352.988 338.392 352.61 338.907 352.888C339.422 353.166 339.66 354.279 339.997 355.013L339.561 355.133L339.224 382.043C339.224 389.987 339.224 398.09 339.046 406.113C339.046 409.668 338.293 410.085 335.202 408.457C322.382 402.022 309.443 395.667 296.742 389.153C292.263 386.789 292.263 385.637 296.325 382.619L296.484 382.5ZM306.708 440.63C313.168 435.585 319.548 430.402 325.948 425.278C329.515 422.418 333.042 419.499 336.688 416.738C338.828 415.09 339.501 415.408 340.056 418.148C340.77 421.663 340.809 423.61 341.364 426.092C341.591 427.049 341.876 427.99 342.216 428.912C342.335 429.508 342.533 430.581 342.751 431.891C343.088 433.877 343.246 435.426 343.306 435.863C345.05 444.562 346.575 453.3 348.141 462.039C348.517 464.164 348.656 466.328 348.953 469.01C348.031 468.746 347.131 468.414 346.258 468.017C337.361 462.992 328.425 458.087 319.687 452.804C315.526 450.222 311.186 448.037 306.986 445.575C304.469 443.946 304.509 442.377 306.708 440.63ZM398.787 421.524C396.805 413.832 394.857 406.14 392.941 398.447C391.792 393.919 390.742 389.351 389.593 384.823C389.038 382.579 389.93 381.209 392.089 381.407C397.915 381.983 403.701 382.917 409.526 383.552C413.034 383.949 416.561 384.029 420.088 384.347C424.05 384.684 427.875 385.141 431.778 385.598C434.394 385.896 435.087 387.385 433.482 389.57C424.05 402.029 414.599 414.454 405.128 426.847L402.532 430.183L401.303 430.342C400.511 427.363 399.579 424.464 398.826 421.524H398.787ZM398.787 430.342C397.756 430.64 396.805 431.256 396.191 431.037C390.584 429.19 385.035 427.184 379.448 425.218C370.848 422.173 362.262 419.121 353.689 416.063C351.093 415.129 348.517 414.077 345.981 413.044C343.999 412.23 343.999 411.058 345.981 409.549L364.963 396.124C370.749 392.052 376.495 387.941 382.321 383.89C385.115 381.904 386.601 382.579 387.413 385.876C390.029 396.68 392.624 407.483 395.339 418.267C396.33 422.061 397.519 425.735 398.826 430.342H398.787ZM432.63 383.254C427.241 382.658 421.871 381.983 416.461 381.268C411.052 380.553 405.682 380.097 400.273 379.56C398.945 379.421 397.598 379.56 396.31 379.441C390.247 378.865 388.88 376.482 390.702 370.901C392.525 365.321 393.694 359.879 395.181 354.378C396.667 348.877 398.034 343.872 399.54 338.629C400.019 337.491 400.602 336.401 401.283 335.372C412.717 351.399 423.654 366.79 434.83 382.48C433.7 382.956 433.165 383.314 432.67 383.254H432.63ZM397.776 337.576C396.35 343.117 394.705 348.619 393.159 354.12C391.614 359.621 390.167 364.765 388.602 370.008C388.209 371.481 387.672 372.911 386.997 374.278C386.826 374.656 386.571 374.991 386.25 375.255C385.93 375.52 385.554 375.707 385.15 375.803C384.746 375.899 384.326 375.901 383.921 375.809C383.517 375.716 383.139 375.532 382.816 375.271C374.316 369.769 365.875 364.149 357.394 358.588C354.045 356.384 350.677 354.239 347.308 352.074L344.733 350.446V349.413C346.199 348.857 347.625 348.162 349.112 347.725C357.255 345.342 365.399 342.958 373.583 340.714C377.546 339.642 381.508 338.986 385.471 337.974C388.78 337.12 392.01 335.988 395.379 335.034C397.856 334.379 398.509 334.836 397.856 337.497L397.776 337.576ZM346.02 353.901C357.658 361.435 369.27 368.988 380.855 376.561C383.609 378.369 383.589 380.533 380.855 382.519L346.338 406.709C345.862 407.046 345.367 407.344 344.891 407.662C343.108 408.814 341.998 408.576 341.998 406.193L342.117 388.676H341.998C341.998 381.804 342.137 374.933 342.117 368.081C342.117 364.109 341.8 360.038 341.84 356.026C341.834 354.838 342.297 353.696 343.128 352.849C343.544 352.491 345.149 353.246 346.06 353.822L346.02 353.901ZM346.238 437.095C344.951 429.905 343.544 422.736 342.276 415.566L343.009 414.752C346.833 416.063 350.677 417.354 354.481 418.724C365.802 422.789 377.11 426.887 388.404 431.017C390.385 431.772 392.367 432.725 394.487 433.56C397.558 434.811 397.638 435.188 394.943 437.333C390.881 440.53 386.779 443.668 382.678 446.806C375.756 452.102 368.827 457.352 361.892 462.555C359.514 464.342 357.057 465.991 354.62 467.699C352.639 469.01 351.767 468.553 351.37 466.189C349.726 456.398 348.022 446.707 346.338 437.015L346.238 437.095ZM362.665 464.898C367.717 460.926 372.83 457.153 377.902 453.261C382.578 449.666 387.076 445.793 391.99 442.576C393.918 441.394 395.753 440.066 397.479 438.604C397.756 438.346 399.461 438.922 399.639 439.398C400.156 441.049 400.475 442.756 400.59 444.482C401.066 450.44 401.402 456.498 401.858 462.495C402.175 466.686 402.73 470.856 402.928 475.047C403.106 478.82 402.552 479.357 398.965 478.8C391.832 477.748 384.718 476.477 377.585 475.305L357.771 472.108C357.136 472.008 356.522 471.75 354.878 471.274C357.929 468.731 360.208 466.706 362.704 464.799L362.665 464.898ZM443.29 443.053C432.273 440.53 421.257 437.949 410.22 435.546C403.305 434.036 402.988 433.679 407.208 428.019C416.561 415.447 426.091 402.995 435.583 390.503C436.093 389.989 436.65 389.523 437.247 389.113C437.921 391.814 438.614 393.979 438.971 396.203C440.338 404.782 441.507 413.382 442.934 422.021C443.825 427.363 445.034 432.646 446.045 437.909C446.245 438.942 446.318 439.996 446.263 441.047C446.183 442.894 445.094 443.43 443.429 443.013L443.29 443.053ZM446.203 425.496C446.203 425.119 445.965 424.563 446.203 424.384C448.72 421.663 446.699 419.757 445.411 417.354C444.583 415.116 444.095 412.766 443.964 410.383C442.676 403.551 441.368 396.719 440.001 389.887C439.704 388.239 441.051 387.504 443.191 388.299C446.699 389.57 450.166 390.98 453.653 392.271C456.665 393.423 459.598 394.574 462.748 395.647C466.533 396.978 467.048 398.149 465.503 401.863C462.471 409.191 459.558 416.559 456.428 423.868C454.248 429.031 451.91 434.135 449.651 439.259H448.839C448.224 436.32 447.59 433.301 447.016 430.441C446.758 428.833 446.52 427.145 446.243 425.457L446.203 425.496ZM446.679 347.804C445.53 352.73 444.301 357.635 443.053 362.521C441.804 367.406 440.417 372.45 439.09 377.475C438.546 378.918 437.924 380.33 437.227 381.705L403.047 334.26C406.435 334.816 408.991 335.054 411.349 335.63C417.928 337.199 424.467 338.967 431.045 340.516C435.543 341.568 440.12 342.343 444.658 343.296C447.392 343.812 447.154 345.838 446.718 347.765L446.679 347.804ZM404.632 312.811C405.048 310.15 406.376 309.494 408.456 311.202C415.193 316.664 421.851 322.245 428.588 327.726C432.135 330.606 435.781 333.326 439.328 336.166C440.715 337.279 442.003 338.51 443.707 339.999C440.556 339.602 437.96 339.443 435.444 338.907C425.761 336.842 416.092 334.71 406.435 332.512C405.051 332.095 403.874 331.171 403.14 329.923C402.405 328.675 402.167 327.196 402.472 325.78C403.245 321.43 403.958 317.101 404.672 312.771L404.632 312.811ZM360.584 304.271L385.788 304.43V305.522L360.584 305.364V304.271ZM355.69 307.369L379.012 307.528C385.352 307.528 391.713 307.528 398.054 307.647C402.71 307.647 403.225 308.621 402.314 313.248C401.482 317.419 401.026 321.669 400.451 325.899C399.995 329.335 398.232 330.328 395.141 328.719C390.049 326.097 384.996 323.396 379.923 320.775L357.374 309.018C356.72 308.68 356.086 308.263 355.393 307.886L355.69 307.369ZM353.946 309.355C359.891 312.434 365.835 315.433 371.779 318.511C379.309 322.483 386.839 326.356 394.348 330.308C395.026 330.812 395.656 331.377 396.231 331.996C392.149 333.088 388.86 335.273 384.936 333.724C384.669 333.655 384.389 333.655 384.122 333.724C383.855 333.794 383.61 333.93 383.411 334.121C381.905 336.941 379.091 337.338 376.436 338.093L343.227 347.228C343.012 345.989 342.959 344.728 343.068 343.475C343.999 339.185 345.149 334.935 346.139 330.665C346.714 328.163 347.11 325.621 347.625 323.099C348.438 319.127 349.25 315.294 350.122 311.401C350.176 310.975 350.331 310.568 350.576 310.216C350.82 309.863 351.146 309.575 351.526 309.376C351.905 309.177 352.327 309.073 352.756 309.073C353.184 309.073 353.606 309.176 353.986 309.375L353.946 309.355ZM348.002 309.355C348.09 310.373 348.09 311.396 348.002 312.414C346.437 319.206 344.792 325.958 343.207 332.75C342.375 336.286 341.741 339.86 340.809 343.376C339.977 346.494 338.828 347.03 335.776 345.977C329.119 343.693 322.481 341.31 315.803 339.026C313.188 338.132 310.473 337.537 307.877 336.623C307.5 336.465 307.158 336.232 306.872 335.939C306.586 335.645 306.362 335.297 306.213 334.915C306.094 334.597 306.966 333.704 307.56 333.346C319.806 325.905 332.084 318.491 344.396 311.103C345.268 310.547 346.338 310.229 348.002 309.455V309.355ZM315.764 316.664C322.778 314.976 329.634 312.811 336.668 310.924C337.826 310.647 339.044 310.803 340.096 311.361L304.192 332.909C305.123 324.191 307.402 318.769 315.764 316.763V316.664ZM307.441 338.748C313.108 340.615 318.716 342.72 324.363 344.567C327.593 345.659 330.862 346.553 334.052 347.745C334.979 348.131 335.737 348.835 336.192 349.731C336.391 350.108 335.578 351.26 334.984 351.717C329.257 355.848 323.432 359.859 317.705 364.01C311.543 368.518 305.48 373.165 299.317 377.713C296.801 379.56 294.205 381.248 291.154 383.354L297.435 357.138C298.683 351.915 299.872 346.692 301.22 341.509C301.913 338.927 304.39 337.835 307.441 338.847V338.748ZM302.626 325.502C300.169 337.279 291.411 344.21 282.911 351.319L302.626 325.502ZM273.796 364.169C280.83 357.556 287.904 351.002 294.919 344.309C296.207 343.097 297.356 341.747 298.565 340.456L299.298 341.012C297.217 348.797 295.077 356.582 293.076 364.387C291.689 369.73 290.52 375.132 289.212 380.494C288.499 383.393 287.528 383.671 285.408 381.705C281.445 378.071 277.482 374.476 273.697 370.802C273.194 370.405 272.788 369.897 272.513 369.318C272.237 368.738 272.099 368.103 272.108 367.461C272.118 366.819 272.275 366.188 272.568 365.617C272.861 365.046 273.281 364.55 273.796 364.169ZM269.833 423.252C271.022 406.351 269.318 389.49 269.833 372.53L271.042 372.113C271.914 372.768 272.825 373.364 273.618 374.099C276.689 376.84 279.8 379.54 282.752 382.4C286.379 385.935 286.814 388.895 284.734 393.403C280.632 402.439 276.57 411.495 272.449 420.531C271.944 421.52 271.389 422.481 270.784 423.411L269.833 423.252ZM271.914 427.979C272.984 424.821 274.51 421.822 275.877 418.784C279.523 410.681 283.188 402.618 286.874 394.535C287.29 393.621 287.825 392.747 288.717 391.119C290.956 401.426 293.432 410.76 294.859 420.233C295.711 425.973 297.95 431.295 298.565 437.015C298.623 438.201 298.583 439.39 298.446 440.57C297.376 440.537 296.314 440.391 295.275 440.133C287.666 437.492 280.077 434.85 272.588 431.911C271.914 431.554 271.537 429.051 271.914 427.899V427.979ZM281.425 453.241L281.999 452.804L296.187 472.207C288.875 467.659 284.912 460.509 281.425 453.161V453.241ZM304.231 478.9L293.571 464.541C290.183 459.953 287.29 455.008 283.664 450.639C280.038 446.27 276.669 440.987 273.222 436.141L273.677 435.406C279.225 437.392 284.754 439.378 290.302 441.245C293.333 442.298 296.781 442.675 298.485 445.912C299.772 447.972 300.722 450.225 301.299 452.585C302.488 460.251 303.28 467.957 304.271 475.643C304.446 476.627 304.671 477.601 304.945 478.562L304.231 478.9ZM307.105 478.661C306.55 474.531 306.074 470.38 305.48 466.229C304.806 461.522 303.994 456.815 303.36 452.089C303.25 450.197 303.25 448.301 303.36 446.409L346.476 470.976V471.81C342.335 472.525 338.808 475.663 334.132 474.392C333.597 474.233 332.527 474.392 332.388 474.729C331.001 477.827 327.95 477.629 325.393 478.383C321.014 479.714 316.635 481.104 312.237 482.355C309.066 483.07 307.56 481.918 307.105 478.582V478.661ZM351.311 503.03C350.32 502.91 349.33 502.831 348.359 502.672C343.96 501.937 339.521 501.302 335.162 500.368C333.699 499.867 332.312 499.165 331.041 498.283C329.377 497.962 327.76 497.435 326.226 496.714C323.507 494.982 321.005 492.928 318.775 490.597L351.39 502.513L351.311 503.03ZM312.534 485.791C314.951 483.229 331.912 478.9 333.993 480.29C334.528 477.668 336.668 478.304 338.451 477.867C340.869 477.271 343.088 475.881 345.505 475.186C349.052 474.193 351.192 475.325 352.817 478.721C356.146 485.712 359.475 492.623 362.724 499.733C363.351 501.305 363.893 502.909 364.349 504.539L312.534 485.791ZM370.274 503.665C368.768 504.559 367.4 503.506 366.628 501.878C364.171 496.595 361.674 491.332 359.177 485.99C357.81 483.15 356.384 480.33 355.056 477.47C354.641 476.28 354.297 475.066 354.026 473.835L400.273 481.958L400.451 482.733C398.47 484.163 396.488 485.632 394.368 487.062C389.791 490.279 385.234 493.497 380.637 496.674C377.209 499.018 373.84 501.461 370.274 503.566V503.665ZM377.427 502.732L377.189 502.195L392.902 491.094C394.76 490.112 396.49 488.904 398.054 487.499C400.729 484.282 404.652 484.977 407.961 484.143C409.942 483.626 412.598 485.434 414.936 486.228C417.611 487.122 420.266 488.075 422.862 488.989L422.961 489.962L377.427 502.732ZM432.531 474.928C432.694 475.229 432.794 475.561 432.824 475.902C432.855 476.244 432.816 476.588 432.709 476.914C431.699 479.496 430.609 482.038 429.42 484.54C429.105 485.418 428.462 486.139 427.626 486.551C426.791 486.962 425.828 487.031 424.942 486.744C420.107 485.295 415.292 483.706 410.497 482.077C408.516 481.442 408.377 480.29 409.982 478.979C413.945 475.702 417.908 472.465 421.871 469.188L434.849 458.384L442.141 452.327C442.815 451.751 443.568 451.275 444.301 450.758L444.697 451.155C442.082 456.756 439.546 462.376 436.771 467.897C436.152 468.848 435.22 469.551 434.136 469.883C431.54 470.737 430.926 472.406 432.531 474.789V474.928ZM435.622 478.622L435.067 478.304C436.732 474.709 438.416 471.134 440.041 467.54C441.666 463.945 443.37 460.152 445.034 456.458C446.354 453.364 448.281 450.568 450.701 448.236C453.812 445.277 457.379 444.562 460.886 443.152C461.405 443.074 461.932 443.074 462.451 443.152L435.622 478.622ZM465.106 435.466C464.888 437.452 462.293 439.676 460.232 440.788C457.715 442.159 454.624 442.457 450.761 443.489C456.17 430.819 461.242 418.883 466.335 406.967L466.89 407.186C466.375 416.48 466.097 425.933 465.106 435.327V435.466ZM299.139 392.986L332.665 409.728C333.359 410.052 334.022 410.438 334.647 410.879C336.827 412.587 336.807 413.6 334.647 415.308C324.74 423.153 314.931 431.037 305.044 438.842C302.706 440.669 301.675 440.193 301.081 437.194C298.901 426.602 296.728 415.97 294.562 405.299C293.65 400.81 292.779 396.322 291.907 391.814C291.86 391.153 291.86 390.489 291.907 389.828C294.542 390.761 296.801 391.715 299.139 392.847V392.986Z" fill="#FF0000"/>
</g>
<circle cx="365.674" cy="399.4" r="107.155" fill="url(#paint1_radial_471_1800)"/>
</g>
<path d="M448.262 458.388C455.473 443.915 459.303 427.994 459.463 411.825C459.801 384.685 449.796 358.434 431.479 338.404C428.782 331.41 429.609 333.705 436.177 331.191C437.611 330.641 430.477 314.809 432.253 313.257C432.406 313.123 431.935 311.995 432.253 312.136L432.253 311.102L447.798 324.096C466.918 343.361 477.982 369.186 478.738 396.317C479.239 412.478 476.063 428.542 469.45 443.296C469.45 443.296 462.047 452.845 453.83 461.772C448.727 467.317 445.375 474.273 437.017 473.541L448.262 458.388Z" fill="black"/>
<path d="M433.18 306.754C427.541 331.422 398.608 318.026 384.417 309.96C371.138 302.412 359.109 292.946 347.192 283.446C341.06 278.559 335.887 274.091 328.366 271.609C321.033 269.184 313.103 267.889 305.477 269.671C295.233 272.039 286.999 279.479 279.758 287.085C257.12 310.823 238.593 340.519 236.343 373.28C234.478 400.444 244.06 427.087 258.147 449.928C270.794 470.433 286.411 488.567 307.194 501.171C350.406 527.378 402.098 511.199 438.647 480.653C440.963 478.719 443.215 476.722 445.405 474.664C454.737 465.935 463.34 456.472 470.009 445.522C471.868 442.478 473.598 439.262 474.236 435.714C474.51 434.169 473.868 432.373 472.023 433.502C471.438 433.916 470.938 434.439 470.55 435.041C469.5 436.434 468.402 437.775 467.256 439.062C460.836 446.313 452.97 452.157 445.476 458.285C437.059 465.154 427.632 471.153 418.144 476.412C415.818 477.7 413.46 478.94 411.073 480.132C393.465 488.854 372.966 494.533 353.163 490.305C332.93 485.983 315.489 471.431 302.774 455.664C298.629 450.541 294.949 445.059 291.776 439.282C276.669 411.702 275.896 377.105 287.782 348.159C291.908 338.128 297.618 328.574 305.606 321.236C313.593 313.897 324.014 308.905 334.853 308.722C363.84 308.191 377.267 340.073 399.96 352.248C418.509 362.201 447.094 349.742 443.594 326.207C443.143 323.274 442.274 320.421 441.012 317.735C439.1 313.632 436.445 309.919 433.18 306.785" fill="url(#paint2_linear_471_1800)"/>
<path d="M494.177 319.142V298.895C494.289 297.647 494.682 296.441 495.328 295.367C495.973 294.293 496.853 293.379 497.903 292.694C503.005 289.371 509.822 292.899 510.415 298.895V312.758L510.683 313.026H524.55C525.797 313.139 527.003 313.532 528.077 314.176C529.151 314.819 530.066 315.697 530.753 316.744C534.056 321.872 530.527 328.666 524.55 329.259H509.893C494.537 329.287 494.177 319.636 494.177 319.636V319.142Z" fill="url(#paint3_linear_471_1800)"/>
<path d="M511.601 323.308L511.601 343.555C511.489 344.803 511.095 346.009 510.45 347.083C509.805 348.157 508.924 349.071 507.875 349.756C502.772 353.079 495.955 349.552 495.363 343.555L495.363 329.693L495.094 329.425L481.227 329.425C479.98 329.311 478.775 328.918 477.701 328.275C476.627 327.631 475.712 326.753 475.024 325.707C471.722 320.578 475.25 313.784 481.227 313.192L495.885 313.192C511.241 313.163 511.601 322.814 511.601 322.814L511.601 323.308Z" fill="url(#paint4_linear_471_1800)"/>
<g opacity="0.75">
<mask id="mask2_471_1800" style="mask-type:alpha" maskUnits="userSpaceOnUse" x="188" y="188" width="381" height="381">
<circle cx="378.959" cy="378.959" r="190" fill="black"/>
<mask id="mask3_471_1800" style="mask-type:alpha" maskUnits="userSpaceOnUse" x="265" y="292" width="229" height="208">
<path d="M436.995 292.275C440.651 295.778 443.626 299.927 445.768 304.512C447.178 307.515 448.151 310.703 448.657 313.981C449.895 322.309 436.183 320.826 443.079 334.837C433.455 346.585 414.042 350.677 399.867 343.077C374.494 329.475 359.48 293.847 327.07 294.442C314.95 294.649 303.295 300.223 294.365 308.426C285.436 316.63 279.05 327.301 274.438 338.486C261.134 370.857 261.993 409.515 278.881 440.333C282.44 446.788 286.567 452.914 291.213 458.638C305.426 476.254 324.933 492.518 347.555 497.346C381.356 504.561 415.282 487.64 441.958 468.376C465.144 451.643 486.13 429.793 491.82 400.817C493.928 389.606 493.854 378.094 491.601 366.912C486.732 341.774 471.279 319.943 452.122 303.454C447.407 299.315 442.362 295.567 437.039 292.244" fill="black"/>
</mask>
<g mask="url(#mask3_471_1800)">
<circle cx="365.674" cy="399.4" r="107.155" fill="black"/>
<mask id="mask4_471_1800" style="mask-type:alpha" maskUnits="userSpaceOnUse" x="258" y="292" width="215" height="215">
<circle cx="365.44" cy="399.255" r="107.165" fill="url(#paint5_linear_471_1800)"/>
<circle cx="365.44" cy="399.255" r="107.165" stroke="#FF0000"/>
</mask>
<g mask="url(#mask4_471_1800)">
<path d="M371.403 506.108C377.709 505.334 383.944 504.059 390.049 502.295C410.933 496.337 421.257 492.961 423.218 492.365C423.882 492.04 424.61 491.871 425.348 491.871C426.087 491.871 426.815 492.04 427.478 492.365C427.856 492.601 428.287 492.737 428.731 492.758C429.176 492.779 429.618 492.685 430.016 492.486C430.414 492.287 430.754 491.988 431.003 491.619C431.253 491.25 431.404 490.823 431.441 490.379C431.877 486.625 434.196 484.222 436.316 481.501C445.569 469.585 454.684 457.669 463.937 445.853C464.849 444.8 465.969 443.948 467.227 443.35C467.757 443.201 468.242 442.921 468.636 442.536C469.03 442.15 469.322 441.672 469.484 441.144C469.645 440.616 469.672 440.056 469.562 439.515C469.451 438.974 469.207 438.47 468.851 438.048C468.17 436.838 467.834 435.464 467.881 434.076C468.554 423.272 469.334 412.475 470.219 401.684C470.3 400.395 470.786 399.165 471.606 398.169C473.191 396.501 472.695 395.369 471.606 393.681C470.454 391.854 469.636 389.837 469.188 387.723C468.448 385.437 468.245 383.01 468.594 380.633C469.585 376.939 467.583 374.933 465.859 372.252C463.105 367.922 461.104 363.096 458.746 358.509C456.764 354.537 453.594 350.902 452.92 346.772C452.247 342.641 450.483 341.35 447.452 339.046C441.289 334.359 436.276 328.143 430.787 322.562C430.317 322.098 429.799 321.686 429.242 321.331C422.624 317.021 415.986 312.771 409.427 308.422C408.815 307.966 408.353 307.336 408.1 306.615C407.307 304.51 405.821 304.132 403.76 304.291C400.918 304.519 398.062 304.519 395.22 304.291C389.514 303.735 383.807 303.1 378.16 302.166C374.97 301.65 371.304 302.623 368.728 299.604C368.53 299.366 367.519 299.723 366.945 299.942C363.319 301.292 359.792 303.477 356.086 303.914C352.227 304.266 348.437 305.169 344.832 306.595C336.381 309.61 327.735 312.045 318.954 313.884C315.169 314.797 311.484 316.743 307.243 315.274C305.519 314.678 304.132 315.989 303.776 318.153C303.562 319.811 302.965 321.395 302.032 322.781C293.102 334.697 284.087 346.487 274.985 358.151C273.189 360.571 271.015 362.684 268.545 364.407C266.088 366.036 265.335 367.168 266.564 369.968C267.133 371.166 267.431 372.475 267.436 373.801C267.218 377.515 266.584 381.209 266.405 384.923C265.95 393.482 265.752 402.062 263.612 410.423C263.562 410.705 263.562 410.994 263.612 411.277C264.602 416.122 265.593 420.968 266.505 425.854C266.707 427.292 266.557 428.757 266.069 430.124C265.641 430.925 265.5 431.849 265.669 432.741C265.838 433.634 266.308 434.442 267 435.029C268.415 436.166 269.657 437.504 270.685 439.001C273.004 442.973 275.144 447.064 277.145 451.195C279.642 456.398 283.585 461.006 283.803 467.182C283.803 467.719 284.932 468.295 285.626 468.692C287.541 469.604 289.389 470.652 291.154 471.83C294.047 474.173 296.742 476.775 299.417 479.376C301.082 480.61 302.439 482.214 303.38 484.063C304.172 486.764 305.361 488.035 308.115 487.936C308.801 487.844 309.499 487.983 310.097 488.333C316.219 492.901 322.283 497.548 328.386 502.116C329.186 502.717 330.128 503.1 331.12 503.228L332.844 503.367C334.244 503.447 335.651 503.447 337.064 503.367C340.77 503.268 351.192 504.579 357.037 505.214C359.891 505.532 364.072 505.949 369.204 506.326L371.403 506.108ZM462.491 370.663L466.276 382.42L465.582 382.658L461.421 371.021L462.491 370.663ZM447.788 353.723C448.284 351.915 449.096 350.187 450.008 347.765C455.694 363.275 461.183 378.23 466.652 393.184L465.879 393.879C463.046 392.926 460.192 391.993 457.359 390.98C452.861 389.371 448.403 387.703 443.925 386.055C443.324 385.924 442.76 385.663 442.271 385.29C441.782 384.917 441.381 384.441 441.096 383.895C440.81 383.35 440.648 382.748 440.62 382.133C440.592 381.518 440.698 380.904 440.933 380.335C443.053 371.497 445.292 362.64 447.63 353.782L447.788 353.723ZM402.789 440.093C403.007 436.558 403.899 436.121 407.169 437.313C408.96 437.815 410.789 438.174 412.637 438.385C420.722 440.193 428.806 442 436.871 443.907C438.122 444.422 439.307 445.089 440.398 445.893L445.569 445.893C444.956 446.669 444.294 447.405 443.588 448.097C432.201 457.431 420.794 466.745 409.368 476.04C407.05 478.026 406.594 477.887 405.762 475.087C405.33 473.53 405.058 471.933 404.949 470.32C404.325 466.067 404.053 461.769 404.137 457.471C404.494 451.553 402.274 446.012 402.631 440.153L402.789 440.093ZM296.484 382.5C301.457 378.806 306.391 375.132 311.523 371.537C312.653 370.723 314.119 370.405 315.288 369.551C316.457 368.697 316.735 367.843 317.606 367.188C322.124 363.792 326.682 360.475 331.259 357.138C333.022 355.848 334.805 354.557 336.668 353.385C337.322 352.988 338.392 352.61 338.907 352.888C339.422 353.166 339.66 354.279 339.997 355.013L339.561 355.133L339.224 382.043C339.224 389.987 339.224 398.09 339.046 406.113C339.046 409.668 338.293 410.085 335.202 408.457C322.382 402.022 309.443 395.667 296.742 389.153C292.264 386.789 292.264 385.637 296.326 382.619L296.484 382.5ZM306.708 440.63C313.168 435.585 319.548 430.402 325.948 425.278C329.515 422.418 333.042 419.499 336.688 416.738C338.828 415.09 339.502 415.408 340.056 418.148C340.77 421.663 340.809 423.61 341.364 426.092C341.591 427.049 341.876 427.99 342.216 428.912C342.335 429.508 342.533 430.581 342.751 431.891C343.088 433.877 343.247 435.426 343.306 435.863C345.05 444.562 346.575 453.3 348.141 462.039C348.517 464.164 348.656 466.328 348.953 469.01C348.032 468.746 347.131 468.414 346.258 468.017C337.362 462.992 328.425 458.087 319.687 452.804C315.526 450.222 311.187 448.037 306.986 445.575C304.469 443.946 304.509 442.377 306.708 440.63ZM398.787 421.524C396.805 413.832 394.857 406.14 392.942 398.447C391.792 393.919 390.742 389.351 389.593 384.823C389.038 382.579 389.93 381.209 392.09 381.407C397.915 381.983 403.701 382.917 409.526 383.552C413.034 383.949 416.561 384.029 420.088 384.347C424.051 384.684 427.875 385.141 431.778 385.598C434.394 385.896 435.087 387.385 433.482 389.57C424.051 402.029 414.599 414.454 405.128 426.847L402.532 430.183L401.303 430.342C400.511 427.363 399.579 424.464 398.827 421.524L398.787 421.524ZM398.787 430.342C397.757 430.64 396.805 431.256 396.191 431.037C390.584 429.19 385.036 427.184 379.448 425.218C370.848 422.173 362.262 419.121 353.689 416.063C351.093 415.129 348.517 414.077 345.981 413.044C343.999 412.23 343.999 411.058 345.981 409.549L364.963 396.124C370.749 392.052 376.495 387.941 382.321 383.89C385.115 381.904 386.601 382.579 387.413 385.876C390.029 396.68 392.625 407.483 395.339 418.267C396.33 422.061 397.519 425.735 398.827 430.342L398.787 430.342ZM432.63 383.254C427.241 382.658 421.871 381.983 416.462 381.268C411.052 380.553 405.682 380.097 400.273 379.56C398.945 379.421 397.598 379.56 396.31 379.441C390.247 378.865 388.88 376.482 390.703 370.901C392.526 365.321 393.695 359.879 395.181 354.378C396.667 348.877 398.034 343.872 399.54 338.629C400.019 337.491 400.603 336.401 401.284 335.372C412.717 351.399 423.654 366.79 434.83 382.48C433.7 382.956 433.165 383.314 432.67 383.254L432.63 383.254ZM397.776 337.576C396.35 343.117 394.705 348.619 393.16 354.12C391.614 359.621 390.168 364.765 388.602 370.008C388.21 371.481 387.672 372.911 386.997 374.278C386.826 374.656 386.571 374.991 386.25 375.255C385.93 375.52 385.554 375.707 385.15 375.803C384.746 375.899 384.326 375.901 383.921 375.809C383.517 375.716 383.139 375.532 382.816 375.271C374.316 369.769 365.875 364.149 357.394 358.588C354.045 356.384 350.677 354.239 347.308 352.074L344.733 350.446L344.733 349.413C346.199 348.857 347.626 348.162 349.112 347.725C357.255 345.342 365.399 342.958 373.583 340.714C377.546 339.642 381.509 338.986 385.471 337.974C388.781 337.12 392.01 335.988 395.379 335.034C397.856 334.379 398.509 334.836 397.856 337.497L397.776 337.576ZM346.021 353.901C357.658 361.435 369.27 368.988 380.855 376.561C383.609 378.369 383.589 380.533 380.855 382.519L346.338 406.709C345.862 407.046 345.367 407.344 344.891 407.662C343.108 408.814 341.998 408.576 341.998 406.193L342.117 388.676L341.998 388.676C341.998 381.804 342.137 374.933 342.117 368.081C342.117 364.109 341.8 360.038 341.84 356.026C341.835 354.838 342.297 353.696 343.128 352.849C343.544 352.491 345.149 353.246 346.06 353.822L346.021 353.901ZM346.239 437.095C344.951 429.905 343.544 422.736 342.276 415.566L343.009 414.752C346.833 416.063 350.677 417.354 354.481 418.724C365.802 422.789 377.11 426.887 388.404 431.017C390.386 431.772 392.367 432.725 394.487 433.56C397.558 434.811 397.638 435.188 394.943 437.333C390.881 440.53 386.779 443.668 382.678 446.806C375.756 452.102 368.827 457.352 361.892 462.555C359.514 464.342 357.057 465.991 354.62 467.699C352.639 469.01 351.767 468.553 351.371 466.189C349.726 456.398 348.022 446.707 346.338 437.015L346.239 437.095ZM362.665 464.898C367.718 460.926 372.83 457.153 377.902 453.261C382.579 449.666 387.076 445.793 391.99 442.576C393.918 441.394 395.753 440.066 397.479 438.604C397.757 438.346 399.461 438.922 399.639 439.398C400.156 441.049 400.475 442.756 400.59 444.482C401.066 450.44 401.402 456.498 401.858 462.495C402.175 466.686 402.73 470.856 402.928 475.047C403.106 478.82 402.552 479.357 398.965 478.8C391.832 477.748 384.718 476.477 377.585 475.305L357.771 472.108C357.137 472.008 356.522 471.75 354.878 471.274C357.929 468.731 360.208 466.706 362.704 464.799L362.665 464.898ZM443.291 443.053C432.274 440.53 421.257 437.949 410.22 435.546C403.305 434.036 402.988 433.679 407.208 428.019C416.561 415.447 426.091 402.995 435.583 390.503C436.093 389.989 436.65 389.523 437.247 389.113C437.921 391.814 438.614 393.979 438.971 396.203C440.338 404.782 441.507 413.382 442.934 422.021C443.826 427.363 445.034 432.646 446.045 437.909C446.245 438.942 446.319 439.996 446.263 441.047C446.183 442.894 445.094 443.43 443.429 443.013L443.291 443.053ZM446.203 425.496C446.203 425.119 445.966 424.563 446.203 424.384C448.72 421.663 446.699 419.757 445.411 417.354C444.583 415.116 444.095 412.766 443.964 410.383C442.676 403.551 441.369 396.719 440.001 389.887C439.704 388.239 441.051 387.504 443.191 388.299C446.699 389.57 450.166 390.98 453.654 392.271C456.665 393.423 459.598 394.574 462.748 395.647C466.533 396.978 467.048 398.149 465.503 401.863C462.471 409.191 459.558 416.559 456.428 423.868C454.248 429.031 451.91 434.135 449.651 439.259L448.839 439.259C448.224 436.32 447.59 433.301 447.016 430.441C446.758 428.833 446.52 427.145 446.243 425.457L446.203 425.496ZM446.679 347.804C445.53 352.73 444.301 357.635 443.053 362.521C441.804 367.406 440.417 372.45 439.09 377.475C438.546 378.918 437.924 380.33 437.227 381.705L403.047 334.26C406.435 334.816 408.991 335.054 411.349 335.63C417.928 337.199 424.467 338.967 431.045 340.516C435.543 341.568 440.12 342.343 444.658 343.296C447.392 343.812 447.154 345.838 446.718 347.765L446.679 347.804ZM404.632 312.811C405.048 310.15 406.376 309.494 408.456 311.202C415.193 316.664 421.851 322.245 428.588 327.726C432.135 330.606 435.781 333.326 439.328 336.166C440.715 337.279 442.003 338.51 443.707 339.999C440.556 339.602 437.96 339.443 435.444 338.907C425.761 336.842 416.092 334.71 406.435 332.512C405.051 332.095 403.874 331.171 403.14 329.923C402.405 328.675 402.167 327.196 402.472 325.78C403.245 321.43 403.959 317.101 404.672 312.771L404.632 312.811ZM360.584 304.271L385.789 304.43L385.789 305.522L360.584 305.364L360.584 304.271ZM355.69 307.369L379.012 307.528C385.353 307.528 391.713 307.528 398.054 307.647C402.71 307.647 403.225 308.621 402.314 313.248C401.482 317.419 401.026 321.669 400.451 325.899C399.996 329.335 398.232 330.328 395.141 328.719C390.049 326.097 384.996 323.396 379.923 320.775L357.374 309.018C356.72 308.68 356.086 308.263 355.393 307.886L355.69 307.369ZM353.946 309.355C359.891 312.434 365.835 315.433 371.78 318.511C379.309 322.483 386.839 326.356 394.348 330.308C395.026 330.812 395.656 331.377 396.231 331.996C392.149 333.088 388.86 335.273 384.936 333.724C384.669 333.655 384.389 333.655 384.122 333.724C383.855 333.794 383.611 333.93 383.411 334.121C381.905 336.941 379.091 337.338 376.436 338.093L343.227 347.228C343.012 345.989 342.959 344.728 343.068 343.475C343.999 339.185 345.149 334.935 346.139 330.665C346.714 328.163 347.11 325.621 347.626 323.099C348.438 319.127 349.25 315.294 350.122 311.401C350.176 310.975 350.331 310.568 350.576 310.216C350.82 309.863 351.146 309.575 351.526 309.376C351.905 309.177 352.327 309.073 352.756 309.073C353.184 309.073 353.606 309.176 353.986 309.375L353.946 309.355ZM348.002 309.355C348.09 310.373 348.09 311.396 348.002 312.414C346.437 319.206 344.792 325.958 343.207 332.75C342.375 336.286 341.741 339.86 340.809 343.376C339.977 346.494 338.828 347.03 335.776 345.977C329.119 343.693 322.481 341.31 315.803 339.026C313.188 338.132 310.473 337.537 307.877 336.623C307.5 336.465 307.158 336.232 306.872 335.939C306.586 335.645 306.362 335.297 306.213 334.915C306.094 334.597 306.966 333.704 307.56 333.346C319.806 325.905 332.084 318.491 344.396 311.103C345.268 310.547 346.338 310.229 348.002 309.455L348.002 309.355ZM315.764 316.664C322.778 314.976 329.634 312.811 336.668 310.924C337.826 310.647 339.044 310.803 340.096 311.361L304.192 332.909C305.123 324.191 307.402 318.769 315.764 316.763L315.764 316.664ZM307.442 338.748C313.108 340.615 318.716 342.72 324.363 344.567C327.593 345.659 330.862 346.553 334.053 347.745C334.979 348.131 335.737 348.835 336.193 349.731C336.391 350.108 335.578 351.26 334.984 351.717C329.257 355.848 323.432 359.859 317.705 364.01C311.543 368.518 305.48 373.165 299.318 377.713C296.801 379.56 294.205 381.248 291.154 383.354L297.435 357.138C298.683 351.915 299.872 346.692 301.22 341.509C301.913 338.927 304.39 337.835 307.442 338.847L307.442 338.748ZM302.627 325.502C300.17 337.279 291.411 344.21 282.911 351.319L302.627 325.502ZM273.796 364.169C280.831 357.556 287.904 351.002 294.919 344.309C296.207 343.097 297.356 341.747 298.565 340.456L299.298 341.012C297.217 348.797 295.077 356.582 293.076 364.387C291.689 369.73 290.52 375.132 289.212 380.494C288.499 383.393 287.528 383.671 285.408 381.705C281.445 378.071 277.482 374.476 273.697 370.802C273.194 370.405 272.788 369.897 272.513 369.318C272.237 368.738 272.099 368.103 272.108 367.461C272.118 366.819 272.275 366.188 272.568 365.617C272.861 365.046 273.281 364.55 273.796 364.169ZM269.833 423.252C271.022 406.351 269.318 389.49 269.833 372.53L271.042 372.113C271.914 372.768 272.825 373.364 273.618 374.099C276.689 376.84 279.8 379.54 282.753 382.4C286.379 385.935 286.815 388.895 284.734 393.403C280.632 402.439 276.57 411.495 272.449 420.531C271.944 421.52 271.389 422.481 270.784 423.411L269.833 423.252ZM271.914 427.979C272.984 424.821 274.51 421.822 275.877 418.784C279.523 410.681 283.188 402.618 286.874 394.535C287.29 393.621 287.825 392.747 288.717 391.119C290.956 401.426 293.433 410.76 294.859 420.233C295.711 425.973 297.95 431.295 298.565 437.015C298.623 438.201 298.584 439.39 298.446 440.57C297.376 440.537 296.314 440.391 295.275 440.133C287.667 437.492 280.078 434.85 272.588 431.911C271.914 431.554 271.537 429.051 271.914 427.899L271.914 427.979ZM281.425 453.241L282 452.804L296.187 472.207C288.875 467.659 284.912 460.509 281.425 453.161L281.425 453.241ZM304.232 478.9L293.571 464.541C290.183 459.953 287.29 455.008 283.664 450.639C280.038 446.27 276.669 440.987 273.222 436.141L273.677 435.406C279.225 437.392 284.754 439.378 290.302 441.245C293.334 442.298 296.781 442.675 298.485 445.912C299.772 447.972 300.722 450.225 301.299 452.585C302.488 460.251 303.28 467.957 304.271 475.643C304.446 476.627 304.671 477.601 304.945 478.562L304.232 478.9ZM307.105 478.661C306.55 474.531 306.074 470.38 305.48 466.229C304.806 461.522 303.994 456.815 303.36 452.089C303.25 450.197 303.25 448.301 303.36 446.409L346.476 470.976L346.476 471.81C342.335 472.525 338.808 475.663 334.132 474.392C333.597 474.233 332.527 474.392 332.388 474.729C331.001 477.827 327.95 477.629 325.394 478.383C321.015 479.714 316.636 481.104 312.237 482.355C309.066 483.07 307.56 481.918 307.105 478.582L307.105 478.661ZM351.311 503.03C350.32 502.91 349.33 502.831 348.359 502.672C343.96 501.937 339.521 501.302 335.162 500.368C333.699 499.867 332.312 499.165 331.041 498.283C329.377 497.962 327.76 497.435 326.226 496.714C323.507 494.982 321.005 492.928 318.775 490.597L351.39 502.513L351.311 503.03ZM312.534 485.791C314.951 483.229 331.913 478.9 333.993 480.29C334.528 477.668 336.668 478.304 338.451 477.867C340.869 477.271 343.088 475.881 345.505 475.186C349.052 474.193 351.192 475.325 352.817 478.721C356.146 485.712 359.475 492.623 362.724 499.733C363.351 501.305 363.893 502.909 364.349 504.539L312.534 485.791ZM370.274 503.665C368.768 504.559 367.401 503.506 366.628 501.878C364.171 496.595 361.674 491.332 359.177 485.99C357.81 483.15 356.384 480.33 355.056 477.47C354.641 476.28 354.297 475.066 354.026 473.835L400.273 481.958L400.451 482.733C398.47 484.163 396.488 485.632 394.368 487.062C389.791 490.279 385.234 493.497 380.637 496.674C377.209 499.018 373.84 501.461 370.274 503.566L370.274 503.665ZM377.427 502.732L377.189 502.195L392.902 491.094C394.76 490.112 396.49 488.904 398.054 487.499C400.729 484.282 404.652 484.977 407.961 484.143C409.943 483.626 412.598 485.434 414.936 486.228C417.611 487.122 420.266 488.075 422.862 488.989L422.961 489.962L377.427 502.732ZM432.531 474.928C432.694 475.229 432.794 475.561 432.824 475.902C432.855 476.244 432.816 476.588 432.71 476.914C431.699 479.496 430.609 482.038 429.42 484.54C429.105 485.418 428.462 486.139 427.626 486.551C426.791 486.962 425.828 487.031 424.942 486.744C420.107 485.295 415.292 483.706 410.497 482.077C408.516 481.442 408.377 480.29 409.982 478.979C413.945 475.702 417.908 472.465 421.871 469.188L434.85 458.384L442.141 452.327C442.815 451.751 443.568 451.275 444.301 450.758L444.697 451.155C442.082 456.756 439.546 462.376 436.772 467.897C436.152 468.848 435.22 469.551 434.136 469.883C431.54 470.737 430.926 472.406 432.531 474.789L432.531 474.928ZM435.622 478.622L435.067 478.304C436.732 474.709 438.416 471.134 440.041 467.54C441.666 463.945 443.37 460.152 445.034 456.458C446.354 453.364 448.281 450.568 450.701 448.236C453.812 445.277 457.379 444.562 460.886 443.152C461.405 443.074 461.932 443.074 462.451 443.152L435.622 478.622ZM465.106 435.466C464.888 437.452 462.293 439.676 460.232 440.788C457.716 442.159 454.625 442.457 450.761 443.489C456.17 430.819 461.243 418.883 466.335 406.967L466.89 407.186C466.375 416.48 466.097 425.933 465.106 435.327L465.106 435.466ZM299.139 392.986L332.666 409.728C333.359 410.052 334.022 410.438 334.647 410.879C336.827 412.587 336.807 413.6 334.647 415.308C324.74 423.153 314.931 431.037 305.044 438.842C302.706 440.669 301.675 440.193 301.081 437.194C298.901 426.602 296.728 415.97 294.562 405.299C293.651 400.81 292.779 396.322 291.907 391.814C291.861 391.153 291.861 390.489 291.907 389.828C294.542 390.761 296.801 391.715 299.139 392.847L299.139 392.986Z" fill="#FF0000"/>
</g>
<circle cx="365.674" cy="399.4" r="107.155" fill="url(#paint6_radial_471_1800)"/>
</g>
<path d="M448.262 458.388C455.473 443.915 459.303 427.994 459.463 411.825C459.801 384.685 449.796 358.434 431.479 338.404C428.782 331.41 429.609 333.705 436.177 331.191C437.612 330.641 430.477 314.809 432.253 313.257C432.406 313.123 431.935 311.995 432.253 312.136L432.253 311.102L447.798 324.096C466.918 343.361 477.982 369.186 478.738 396.317C479.239 412.478 476.063 428.542 469.45 443.296C469.45 443.296 462.047 452.845 453.83 461.772C448.727 467.317 445.375 474.273 437.017 473.541L448.262 458.388Z" fill="black"/>
<path d="M433.18 306.754C427.541 331.422 398.608 318.026 384.417 309.96C371.138 302.412 359.11 292.946 347.192 283.446C341.06 278.559 335.887 274.091 328.366 271.609C321.034 269.184 313.103 267.889 305.477 269.671C295.233 272.039 286.999 279.479 279.758 287.085C257.12 310.823 238.593 340.519 236.343 373.28C234.478 400.444 244.06 427.087 258.147 449.928C270.794 470.433 286.411 488.567 307.194 501.171C350.406 527.378 402.098 511.199 438.647 480.653C440.963 478.719 443.215 476.722 445.405 474.664C454.737 465.935 463.34 456.472 470.01 445.522C471.868 442.478 473.598 439.262 474.236 435.714C474.51 434.169 473.868 432.373 472.023 433.502C471.438 433.916 470.938 434.439 470.55 435.041C469.5 436.434 468.402 437.775 467.256 439.062C460.836 446.313 452.97 452.157 445.476 458.285C437.059 465.154 427.632 471.153 418.145 476.412C415.818 477.7 413.46 478.94 411.073 480.132C393.466 488.854 372.966 494.533 353.163 490.305C332.93 485.983 315.489 471.431 302.774 455.664C298.629 450.541 294.949 445.059 291.776 439.282C276.669 411.702 275.896 377.105 287.782 348.159C291.908 338.128 297.618 328.574 305.606 321.236C313.593 313.897 324.014 308.905 334.853 308.722C363.84 308.191 377.267 340.073 399.96 352.248C418.509 362.201 447.094 349.742 443.594 326.207C443.143 323.274 442.274 320.421 441.012 317.735C439.1 313.632 436.445 309.919 433.18 306.785" fill="url(#paint7_linear_471_1800)"/>
</mask>
<g mask="url(#mask2_471_1800)">
<g filter="url(#filter0_f_471_1800)">
<ellipse cx="406.878" cy="747.633" rx="229" ry="223.5" transform="rotate(42 406.878 747.633)" fill="#D9D9D9"/>
</g>
</g>
</g>
<defs>
<filter id="filter0_f_471_1800" x="0.320801" y="341.653" width="813.114" height="811.96" filterUnits="userSpaceOnUse" color-interpolation-filters="sRGB">
<feFlood flood-opacity="0" result="BackgroundImageFix"/>
<feBlend mode="normal" in="SourceGraphic" in2="BackgroundImageFix" result="shape"/>
<feGaussianBlur stdDeviation="90" result="effect1_foregroundBlur_471_1800"/>
</filter>
<linearGradient id="paint0_linear_471_1800" x1="474.288" y1="348.011" x2="290.745" y2="432.077" gradientUnits="userSpaceOnUse">
<stop stop-color="#E2272A"/>
<stop offset="1" stop-color="#FF0105"/>
</linearGradient>
<radialGradient id="paint1_radial_471_1800" cx="0" cy="0" r="1" gradientUnits="userSpaceOnUse" gradientTransform="translate(308.398 415.26) rotate(-22.8079) scale(151.082 223.031)">
<stop stop-opacity="0"/>
<stop offset="1"/>
</radialGradient>
<linearGradient id="paint2_linear_471_1800" x1="409.992" y1="373.458" x2="-20.1545" y2="206.905" gradientUnits="userSpaceOnUse">
<stop offset="0.00115221" stop-color="#FC0039"/>
<stop offset="1" stop-color="#FC00AF"/>
</linearGradient>
<linearGradient id="paint3_linear_471_1800" x1="522.482" y1="297.553" x2="489.003" y2="326.712" gradientUnits="userSpaceOnUse">
<stop stop-color="#FF4D01"/>
<stop offset="1" stop-color="#E000A1"/>
</linearGradient>
<linearGradient id="paint4_linear_471_1800" x1="478.741" y1="348.66" x2="516.724" y2="315.678" gradientUnits="userSpaceOnUse">
<stop stop-color="#E000A1"/>
<stop offset="1" stop-color="#FF4D01"/>
</linearGradient>
<linearGradient id="paint5_linear_471_1800" x1="474.288" y1="348.011" x2="290.745" y2="432.077" gradientUnits="userSpaceOnUse">
<stop stop-color="#E2272A"/>
<stop offset="1" stop-color="#FF0105"/>
</linearGradient>
<radialGradient id="paint6_radial_471_1800" cx="0" cy="0" r="1" gradientUnits="userSpaceOnUse" gradientTransform="translate(308.398 415.26) rotate(-22.8079) scale(151.082 223.031)">
<stop stop-opacity="0"/>
<stop offset="1"/>
</radialGradient>
<linearGradient id="paint7_linear_471_1800" x1="409.992" y1="373.458" x2="-20.1544" y2="206.905" gradientUnits="userSpaceOnUse">
<stop offset="0.00115221" stop-color="#FC0039"/>
<stop offset="1" stop-color="#FC00AF"/>
</linearGradient>
</defs>
</svg>
